<svg xmlns="http://www.w3.org/2000/svg" viewBox="0 0 512 512" role="img" aria-label="松贴">
  <defs>
    <linearGradient id="paper" x1="0" y1="0" x2="1" y2="1">
      <stop offset="0" stop-color="#fff2a8" />
      <stop offset="1" stop-color="#f3c95d" />
    </linearGradient>
    <filter id="shadow" x="-20%" y="-20%" width="140%" height="150%">
      <feDropShadow dx="0" dy="18" stdDeviation="18" flood-color="#5c4930" flood-opacity=".28" />
    </filter>
  </defs>
  <rect width="512" height="512" rx="112" fill="#5c7662" />
  <path
    d="M103 94c70-9 211-7 306 5 7 76 6 210-1 307-73 8-210 9-307-2-7-75-8-220 2-310Z"
    fill="url(#paper)"
    filter="url(#shadow)"
  />
  <path d="M105 346c73 8 216 9 302 1l1 58c-90 9-232 10-307-1Z" fill="#dcaa42" opacity=".35" />
  <path d="M157 202c45-31 107-35 170-14-23 3-48 12-66 26 32-6 67 0 93 17-41 2-81 11-112 34" fill="none" stroke="#536b59" stroke-linecap="round" stroke-linejoin="round" stroke-width="19" />
  <circle cx="172" cy="295" r="13" fill="#536b59" />
  <circle cx="222" cy="295" r="13" fill="#536b59" />
  <path d="M258 297c19 22 50 24 72 2" fill="none" stroke="#536b59" stroke-linecap="round" stroke-width="15" />
</svg>
